<svg width="24" height="24" viewBox="0 0 24 24" fill="none" xmlns="http://www.w3.org/2000/svg">
<rect x="3.20996" y="3.16992" width="4.40224" height="4.40224" fill="#1048A9"/>
<rect x="3.20996" y="16.377" width="4.40224" height="4.40224" fill="#1048A9"/>
<rect x="16.417" y="3.16992" width="4.40224" height="4.40224" fill="#1048A9"/>
<rect x="16.417" y="16.377" width="4.40224" height="4.40224" fill="#1048A9"/>
<rect x="12.0146" y="0.0517578" width="4.40224" height="4.40224" transform="rotate(45 12.0146 0.0517578)" fill="#1048A9"/>
<rect x="20.8135" y="8.85645" width="4.40224" height="4.40224" transform="rotate(45 20.8135 8.85645)" fill="#1048A9"/>
<path fill-rule="evenodd" clip-rule="evenodd" d="M21.2848 23.5435C22.263 23.6902 22.8674 23.5144 23.1909 23.1909C23.5144 22.8674 23.6902 22.263 23.5435 21.2848C23.4005 20.3315 22.9661 19.1449 22.2619 17.8001C21.7849 16.8892 21.1888 15.9145 20.4863 14.9013L19.9018 14.1697L20.8001 14.5875C23.6224 18.6448 24.7793 22.1213 23.4503 23.4503C21.4734 25.4273 14.7443 21.9034 8.42044 15.5796C2.09661 9.25572 -1.42726 2.52661 0.549679 0.549679C1.8096 -0.710239 4.99967 0.264062 8.78489 2.77347L9.10255 3.00361L9.49233 3.73732L8.47011 3.08825C7.68175 2.56781 6.92084 2.11564 6.19988 1.73809C4.85512 1.03387 3.66852 0.599529 2.71518 0.456516C1.73703 0.309777 1.13259 0.485575 0.809084 0.809084C0.485575 1.13259 0.309777 1.73703 0.456515 2.71518C0.59953 3.66852 1.03387 4.85512 1.73809 6.19989C3.14387 8.88435 5.58437 12.1229 8.73076 15.2692C11.8771 18.4156 15.1157 20.8561 17.8001 22.2619C19.1449 22.9661 20.3315 23.4005 21.2848 23.5435Z" fill="#1048A9"/>
<path fill-rule="evenodd" clip-rule="evenodd" d="M6.20015 1.73808C5.63196 1.44053 5.092 1.19116 4.58594 0.991593V0.533203C6.51468 1.25662 8.8853 2.68853 11.3727 4.65868V5.21934C9.54469 3.74639 7.77685 2.56376 6.20015 1.73808ZM18.2395 11.9686C19.9656 14.0295 21.3376 16.0346 22.2622 17.8001C22.9664 19.1449 23.4007 20.3315 23.5438 21.2848C23.6905 22.263 23.5147 22.8674 23.1912 23.1909C22.8677 23.5144 22.2632 23.6902 21.2851 23.5435C20.3318 23.4005 19.1451 22.9661 17.8004 22.2619C17.0794 21.8844 16.3185 21.4322 15.5302 20.9117L14.5079 20.2627L14.8977 20.9964L15.2154 21.2265C19.0006 23.7359 22.1907 24.7102 23.4506 23.4503C25.0828 21.8181 22.9653 16.9464 18.6181 11.738V11.9686H18.2395Z" fill="#1048A9"/>
<path fill-rule="evenodd" clip-rule="evenodd" d="M14.6934 21.2077C13.5555 20.4315 12.3708 19.5235 11.1734 18.502L8.90137 20.774L12.0142 23.8869L14.6934 21.2077Z" fill="#1048A9"/>
<path fill-rule="evenodd" clip-rule="evenodd" d="M5.48094 12.8052C4.45977 11.6069 3.5524 10.4215 2.77726 9.2832L0.0917969 11.9687L3.20465 15.0815L5.48094 12.8052Z" fill="#1048A9"/>
</svg>
