<svg width="133" height="13" viewBox="0 0 133 13" fill="none" xmlns="http://www.w3.org/2000/svg">
<path d="M0.328 12V0.799999H2.472L7.24 8.704H6.104L10.792 0.799999H12.92L12.952 12H10.52L10.504 4.528H10.952L7.208 10.816H6.04L2.216 4.528H2.76V12H0.328ZM14.1372 12L19.1293 0.799999H21.6893L26.6973 12H23.9773L19.8813 2.112H20.9053L16.7933 12H14.1372ZM16.6332 9.6L17.3213 7.632H23.0813L23.7853 9.6H16.6332ZM25.9855 12L30.8015 5.36V7.248L26.1935 0.799999H29.1375L32.3215 5.296L31.0895 5.312L34.2255 0.799999H37.0415L32.4655 7.136V5.28L37.3135 12H34.3215L31.0255 7.248H32.2095L28.9615 12H25.9855ZM43.6411 12.192C42.7771 12.192 41.9718 12.0533 41.2251 11.776C40.4891 11.488 39.8491 11.0827 39.3051 10.56C38.7611 10.0373 38.3345 9.424 38.0251 8.72C37.7265 8.016 37.5771 7.24267 37.5771 6.4C37.5771 5.55733 37.7265 4.784 38.0251 4.08C38.3345 3.376 38.7611 2.76267 39.3051 2.24C39.8598 1.71733 40.5051 1.31733 41.2411 1.04C41.9771 0.752 42.7825 0.608 43.6571 0.608C44.6278 0.608 45.5025 0.778666 46.2811 1.12C47.0705 1.45067 47.7318 1.94133 48.2651 2.592L46.6011 4.128C46.2171 3.69067 45.7905 3.36533 45.3211 3.152C44.8518 2.928 44.3398 2.816 43.7851 2.816C43.2625 2.816 42.7825 2.90133 42.3451 3.072C41.9078 3.24267 41.5291 3.488 41.2091 3.808C40.8891 4.128 40.6385 4.50667 40.4571 4.944C40.2865 5.38133 40.2011 5.86667 40.2011 6.4C40.2011 6.93333 40.2865 7.41867 40.4571 7.856C40.6385 8.29333 40.8891 8.672 41.2091 8.992C41.5291 9.312 41.9078 9.55733 42.3451 9.728C42.7825 9.89867 43.2625 9.984 43.7851 9.984C44.3398 9.984 44.8518 9.87733 45.3211 9.664C45.7905 9.44 46.2171 9.104 46.6011 8.656L48.2651 10.192C47.7318 10.8427 47.0705 11.3387 46.2811 11.68C45.5025 12.0213 44.6225 12.192 43.6411 12.192ZM52.7057 12V7.424L53.2977 8.992L48.3697 0.799999H51.1218L54.8978 7.088H53.3138L57.1058 0.799999H59.6498L54.7218 8.992L55.2978 7.424V12H52.7057ZM60.6405 12V0.799999H66.1125C67.5205 0.799999 68.5765 1.06667 69.2805 1.6C69.9952 2.13333 70.3525 2.83733 70.3525 3.712C70.3525 4.29867 70.2085 4.81067 69.9205 5.248C69.6325 5.67467 69.2378 6.00533 68.7365 6.24C68.2352 6.47467 67.6592 6.592 67.0085 6.592L67.3125 5.936C68.0165 5.936 68.6405 6.05333 69.1845 6.288C69.7285 6.512 70.1498 6.848 70.4485 7.296C70.7578 7.744 70.9125 8.29333 70.9125 8.944C70.9125 9.904 70.5338 10.656 69.7765 11.2C69.0192 11.7333 67.9045 12 66.4325 12H60.6405ZM63.2165 10.048H66.2405C66.9125 10.048 67.4192 9.94133 67.7605 9.728C68.1125 9.504 68.2885 9.152 68.2885 8.672C68.2885 8.20267 68.1125 7.856 67.7605 7.632C67.4192 7.39733 66.9125 7.28 66.2405 7.28H63.0245V5.392H65.7925C66.4218 5.392 66.9018 5.28533 67.2325 5.072C67.5738 4.848 67.7445 4.512 67.7445 4.064C67.7445 3.62667 67.5738 3.30133 67.2325 3.088C66.9018 2.864 66.4218 2.752 65.7925 2.752H63.2165V10.048ZM75.2589 5.312H80.6509V7.328H75.2589V5.312ZM75.4509 9.92H81.5469V12H72.8749V0.799999H81.3389V2.88H75.4509V9.92ZM83.6093 12V0.799999H88.4573C89.4599 0.799999 90.3239 0.965333 91.0493 1.296C91.7746 1.616 92.3346 2.08 92.7293 2.688C93.1239 3.296 93.3213 4.02133 93.3213 4.864C93.3213 5.696 93.1239 6.416 92.7293 7.024C92.3346 7.62133 91.7746 8.08 91.0493 8.4C90.3239 8.72 89.4599 8.88 88.4573 8.88H85.0493L86.2013 7.744V12H83.6093ZM90.7292 12L87.9293 7.936H90.6973L93.5293 12H90.7292ZM86.2013 8.032L85.0493 6.816H88.3133C89.1133 6.816 89.7106 6.64533 90.1053 6.304C90.4999 5.952 90.6973 5.472 90.6973 4.864C90.6973 4.24533 90.4999 3.76533 90.1053 3.424C89.7106 3.08267 89.1133 2.912 88.3133 2.912H85.0493L86.2013 1.68V8.032ZM100.735 12.192C99.8709 12.192 99.0655 12.0533 98.3189 11.776C97.5829 11.488 96.9429 11.0827 96.3989 10.56C95.8549 10.0373 95.4282 9.424 95.1189 8.72C94.8202 8.016 94.6709 7.24267 94.6709 6.4C94.6709 5.55733 94.8202 4.784 95.1189 4.08C95.4282 3.376 95.8549 2.76267 96.3989 2.24C96.9535 1.71733 97.5989 1.31733 98.3349 1.04C99.0709 0.752 99.8762 0.608 100.751 0.608C101.722 0.608 102.596 0.778666 103.375 1.12C104.164 1.45067 104.826 1.94133 105.359 2.592L103.695 4.128C103.311 3.69067 102.884 3.36533 102.415 3.152C101.946 2.928 101.434 2.816 100.879 2.816C100.356 2.816 99.8762 2.90133 99.4389 3.072C99.0015 3.24267 98.6229 3.488 98.3029 3.808C97.9829 4.128 97.7322 4.50667 97.5509 4.944C97.3802 5.38133 97.2949 5.86667 97.2949 6.4C97.2949 6.93333 97.3802 7.41867 97.5509 7.856C97.7322 8.29333 97.9829 8.672 98.3029 8.992C98.6229 9.312 99.0015 9.55733 99.4389 9.728C99.8762 9.89867 100.356 9.984 100.879 9.984C101.434 9.984 101.946 9.87733 102.415 9.664C102.884 9.44 103.311 9.104 103.695 8.656L105.359 10.192C104.826 10.8427 104.164 11.3387 103.375 11.68C102.596 12.0213 101.716 12.192 100.735 12.192ZM112.315 12.192C111.43 12.192 110.608 12.048 109.851 11.76C109.104 11.472 108.454 11.0667 107.899 10.544C107.355 10.0213 106.928 9.408 106.619 8.704C106.32 8 106.171 7.232 106.171 6.4C106.171 5.568 106.32 4.8 106.619 4.096C106.928 3.392 107.36 2.77867 107.915 2.256C108.47 1.73333 109.12 1.328 109.867 1.04C110.614 0.752 111.424 0.608 112.299 0.608C113.184 0.608 113.995 0.752 114.731 1.04C115.478 1.328 116.123 1.73333 116.667 2.256C117.222 2.77867 117.654 3.392 117.963 4.096C118.272 4.78933 118.427 5.55733 118.427 6.4C118.427 7.232 118.272 8.00533 117.963 8.72C117.654 9.424 117.222 10.0373 116.667 10.56C116.123 11.072 115.478 11.472 114.731 11.76C113.995 12.048 113.19 12.192 112.315 12.192ZM112.299 9.984C112.8 9.984 113.259 9.89867 113.675 9.728C114.102 9.55733 114.475 9.312 114.795 8.992C115.115 8.672 115.36 8.29333 115.531 7.856C115.712 7.41867 115.803 6.93333 115.803 6.4C115.803 5.86667 115.712 5.38133 115.531 4.944C115.36 4.50667 115.115 4.128 114.795 3.808C114.486 3.488 114.118 3.24267 113.691 3.072C113.264 2.90133 112.8 2.816 112.299 2.816C111.798 2.816 111.334 2.90133 110.907 3.072C110.491 3.24267 110.123 3.488 109.803 3.808C109.483 4.128 109.232 4.50667 109.051 4.944C108.88 5.38133 108.795 5.86667 108.795 6.4C108.795 6.92267 108.88 7.408 109.051 7.856C109.232 8.29333 109.478 8.672 109.787 8.992C110.107 9.312 110.48 9.55733 110.907 9.728C111.334 9.89867 111.798 9.984 112.299 9.984ZM120.375 12V0.799999H122.519L127.287 8.704H126.151L130.839 0.799999H132.967L132.999 12H130.567L130.551 4.528H130.999L127.255 10.816H126.087L122.263 4.528H122.807V12H120.375Z" fill="#1048A9"/>
</svg>
